<svg width="24" height="25" viewBox="0 0 24 25" fill="none" xmlns="http://www.w3.org/2000/svg">
<g clip-path="url(#clip0_28_468)">
<path d="M4 7.25C4 5.482 4 4.598 4.55 4.05C5.097 3.5 5.981 3.5 7.75 3.5C9.519 3.5 10.402 3.5 10.95 4.05C11.5 4.598 11.5 5.482 11.5 7.25C11.5 9.018 11.5 9.902 10.95 10.45C10.402 11 9.518 11 7.75 11C5.982 11 5.098 11 4.55 10.45C4 9.903 4 9.019 4 7.25ZM4 17.757C4 15.989 4 15.105 4.55 14.557C5.098 14.007 5.982 14.007 7.75 14.007C9.518 14.007 10.402 14.007 10.95 14.557C11.5 15.105 11.5 15.989 11.5 17.757C11.5 19.525 11.5 20.409 10.95 20.957C10.402 21.507 9.518 21.507 7.75 21.507C5.982 21.507 5.098 21.507 4.55 20.957C4 20.41 4 19.525 4 17.757ZM14.5 7.25C14.5 5.482 14.5 4.598 15.05 4.05C15.598 3.5 16.482 3.5 18.25 3.5C20.018 3.5 20.902 3.5 21.45 4.05C22 4.598 22 5.482 22 7.25C22 9.018 22 9.902 21.45 10.45C20.902 11 20.018 11 18.25 11C16.482 11 15.598 11 15.05 10.45C14.5 9.902 14.5 9.018 14.5 7.25ZM14.5 17.757C14.5 15.989 14.5 15.105 15.05 14.557C15.598 14.007 16.482 14.007 18.25 14.007C20.018 14.007 20.902 14.007 21.45 14.557C22 15.105 22 15.989 22 17.757C22 19.525 22 20.409 21.45 20.957C20.902 21.507 20.018 21.507 18.25 21.507C16.482 21.507 15.598 21.507 15.05 20.957C14.5 20.409 14.5 19.525 14.5 17.757Z" stroke="black" stroke-width="1.5" stroke-linecap="round" stroke-linejoin="round"/>
</g>
<defs>
<clipPath id="clip0_28_468">
<rect width="24" height="24" fill="white" transform="translate(0 0.5)"/>
</clipPath>
</defs>
</svg>
