<svg width="24" height="24" viewBox="0 0 24 24" fill="none" xmlns="http://www.w3.org/2000/svg">
<path fill-rule="evenodd" clip-rule="evenodd" d="M7.15791 5.8848L18.1151 16.842C19.3026 15.3424 19.8977 13.4587 19.7871 11.549C19.6766 9.63937 18.8682 7.83691 17.5156 6.48432C16.163 5.13173 14.3605 4.32332 12.4509 4.21278C10.5412 4.10225 8.65752 4.6973 7.15791 5.8848ZM16.8419 18.1152L5.88471 7.158C4.6972 8.65762 4.10216 10.5413 4.21269 12.451C4.32322 14.3606 5.13163 16.1631 6.48422 17.5157C7.83681 18.8683 9.63928 19.6767 11.5489 19.7872C13.4586 19.8978 15.3423 19.3027 16.8419 18.1152ZM5.21151 5.2116C6.10297 4.32013 7.16129 3.61299 8.32605 3.13053C9.49081 2.64807 10.7392 2.39975 11.9999 2.39975C13.2606 2.39975 14.509 2.64807 15.6738 3.13053C16.8385 3.61299 17.8968 4.32013 18.7883 5.2116C19.6798 6.10307 20.3869 7.16139 20.8694 8.32614C21.3518 9.4909 21.6002 10.7393 21.6002 12C21.6002 13.2607 21.3518 14.5091 20.8694 15.6739C20.3869 16.8386 19.6798 17.8969 18.7883 18.7884C16.9879 20.5888 14.5461 21.6002 11.9999 21.6002C9.45376 21.6002 7.0119 20.5888 5.21151 18.7884C3.41111 16.988 2.39966 14.5461 2.39966 12C2.39966 9.45386 3.41111 7.012 5.21151 5.2116Z" fill="black"/>
</svg>
