<svg width="25" height="24" viewBox="0 0 25 24" fill="none" xmlns="http://www.w3.org/2000/svg">
<g clip-path="url(#clip0_76_178)">
<path d="M12.75 0.75C12.75 0.551088 12.829 0.360322 12.9697 0.21967C13.1103 0.0790176 13.3011 0 13.5 0L19.5 0C19.6989 0 19.8897 0.0790176 20.0303 0.21967C20.171 0.360322 20.25 0.551088 20.25 0.75C20.25 0.948912 20.171 1.13968 20.0303 1.28033C19.8897 1.42098 19.6989 1.5 19.5 1.5H17.25V22.5H19.5C19.6989 22.5 19.8897 22.579 20.0303 22.7197C20.171 22.8603 20.25 23.0511 20.25 23.25C20.25 23.4489 20.171 23.6397 20.0303 23.7803C19.8897 23.921 19.6989 24 19.5 24H13.5C13.3011 24 13.1103 23.921 12.9697 23.7803C12.829 23.6397 12.75 23.4489 12.75 23.25C12.75 23.0511 12.829 22.8603 12.9697 22.7197C13.1103 22.579 13.3011 22.5 13.5 22.5H15.75V1.5H13.5C13.3011 1.5 13.1103 1.42098 12.9697 1.28033C12.829 1.13968 12.75 0.948912 12.75 0.75Z" fill="black"/>
<path fill-rule="evenodd" clip-rule="evenodd" d="M8.9399 6.46496C8.88263 6.32842 8.7863 6.21185 8.66301 6.12987C8.53972 6.04789 8.39496 6.00415 8.2469 6.00415C8.09884 6.00415 7.95408 6.04789 7.83079 6.12987C7.7075 6.21185 7.61117 6.32842 7.5539 6.46496L3.8039 15.465C3.72732 15.6486 3.72681 15.8551 3.80248 16.039C3.87815 16.223 4.02381 16.3694 4.2074 16.446C4.391 16.5225 4.5975 16.523 4.78147 16.4474C4.96544 16.3717 5.11182 16.2261 5.1884 16.0425L6.2459 13.5075H10.2509L11.3084 16.0425C11.385 16.2261 11.5314 16.3717 11.7153 16.4474C11.8993 16.523 12.1058 16.5225 12.2894 16.446C12.473 16.3694 12.6187 16.223 12.6943 16.039C12.77 15.8551 12.7695 15.6486 12.6929 15.465L8.9429 6.46496H8.9399ZM8.2469 8.69996L9.6224 12H6.8774L8.2529 8.69996H8.2469Z" fill="black"/>
<path d="M13.4999 4.5C13.6988 4.5 13.8896 4.42098 14.0302 4.28033C14.1709 4.13968 14.2499 3.94891 14.2499 3.75C14.2499 3.55109 14.1709 3.36032 14.0302 3.21967C13.8896 3.07902 13.6988 3 13.4999 3H7.94989C5.4299 3 4.16989 3 3.20989 3.4905C2.3652 3.92346 1.67785 4.61081 1.24489 5.4555C0.754395 6.4185 0.754395 7.6755 0.754395 10.1955V13.7955C0.754395 16.3155 0.754395 17.5755 1.24489 18.5355C1.67785 19.3802 2.3652 20.0675 3.20989 20.5005C4.17289 20.991 5.4299 20.991 7.94989 20.991H13.4999C13.6988 20.991 13.8896 20.912 14.0302 20.7713C14.1709 20.6307 14.2499 20.4399 14.2499 20.241C14.2499 20.0421 14.1709 19.8513 14.0302 19.7107C13.8896 19.57 13.6988 19.491 13.4999 19.491H7.94989C6.6644 19.491 5.78989 19.491 5.11489 19.434C4.45789 19.3815 4.12039 19.284 3.88639 19.164C3.32193 18.8764 2.86301 18.4175 2.57539 17.853C2.45539 17.619 2.35789 17.283 2.30539 16.6245C2.24989 15.9495 2.24839 15.0795 2.24839 13.7895V10.1895C2.24839 8.904 2.24989 8.0295 2.30539 7.3545C2.35939 6.6975 2.45689 6.36 2.57539 6.126C2.86339 5.562 3.32239 5.103 3.88639 4.815C4.12039 4.695 4.45789 4.5975 5.11489 4.545C5.78989 4.491 6.65989 4.4895 7.94989 4.4895H13.4999V4.5ZM19.4999 19.5C19.3017 19.5039 19.1129 19.5852 18.9739 19.7265C18.8349 19.8677 18.7566 20.0578 18.7559 20.256C18.7559 20.673 19.0949 21.0105 19.5119 21C20.8064 20.97 21.6269 20.865 22.3019 20.523C23.1478 20.0917 23.8356 19.4039 24.2669 18.558C24.7574 17.595 24.7574 16.338 24.7574 13.818V10.218C24.7574 7.698 24.7574 6.438 24.2669 5.478C23.8356 4.63209 23.1478 3.94429 22.3019 3.513C21.6284 3.1695 20.8094 3.066 19.5119 3.036C19.4131 3.034 19.3149 3.05179 19.223 3.08832C19.1312 3.12485 19.0476 3.17938 18.9771 3.24871C18.9067 3.31803 18.8508 3.40075 18.8128 3.492C18.7748 3.58324 18.7555 3.68116 18.7559 3.78C18.7559 4.1925 19.0889 4.5255 19.4999 4.536C19.8329 4.543 20.1289 4.5575 20.3879 4.5795C21.0449 4.632 21.3824 4.7295 21.6164 4.8495C22.1804 5.1375 22.6394 5.5965 22.9274 6.1605C23.0474 6.3945 23.1449 6.7305 23.1974 7.389C23.2529 8.064 23.2544 8.934 23.2544 10.224V13.824C23.2544 15.1095 23.2529 15.984 23.1974 16.659C23.1434 17.316 23.0459 17.6535 22.9274 17.8875C22.6398 18.452 22.1809 18.9109 21.6164 19.1985C21.3824 19.3185 21.0449 19.416 20.3879 19.4685C20.1279 19.4885 19.8319 19.5025 19.4999 19.5105V19.5Z" fill="black"/>
</g>
<defs>
<clipPath id="clip0_76_178">
<rect width="24" height="24" fill="white" transform="translate(0.75)"/>
</clipPath>
</defs>
</svg>
